<?xml version="1.0" encoding="UTF-8"?>
<!-- Generated by Pixelmator Pro 3.6.4 -->
<svg width="40" height="40" viewBox="0 0 28 22" xmlns="http://www.w3.org/2000/svg">
    <g id="Logo">
        <g id="logo">
            <path id="Path" fill="#ed2328" fill-rule="evenodd" stroke="none" d="M 14.591255 -0.204304 L 18.02301 1.205166 L 13.120502 3.16617 Z"/>
            <linearGradient id="linearGradient1" x1="11.575526" y1="1.683941" x2="9.563983" y2="6.977475" gradientUnits="userSpaceOnUse">
                <stop offset="1e-05" stop-color="#ec118e" stop-opacity="1"/>
                <stop offset="1" stop-color="#aa0044" stop-opacity="1"/>
            </linearGradient>
            <path id="path1" fill="url(#linearGradient1)" fill-rule="evenodd" stroke="none" d="M 14.153203 -0.274668 L 9.740948 10.143161 L 8.270195 6.772687 L 10.537604 1.196085 Z"/>
            <path id="path2" fill="#ec1890" fill-rule="evenodd" stroke="none" d="M 9.986073 1.266449 L 8.086353 6.168956 L 6.67688 2.798483 Z"/>
            <linearGradient id="linearGradient2" x1="19.092344" y1="2.477971" x2="13.640004" y2="4.701256" gradientUnits="userSpaceOnUse">
                <stop offset="1e-05" stop-color="#ed2127" stop-opacity="1"/>
                <stop offset="1" stop-color="#a02c2c" stop-opacity="1"/>
            </linearGradient>
            <path id="path3" fill="url(#linearGradient2)" fill-rule="evenodd" stroke="none" d="M 18.549591 1.370848 L 21.945017 2.7894 L 11.404627 7.140375 L 12.87538 3.769901 Z"/>
            <path id="path4" fill="#1bb0ef" fill-rule="evenodd" stroke="none" d="M 22.128242 3.120249 L 23.590532 6.78177 L 18.688025 4.698204 Z"/>
            <linearGradient id="linearGradient3" x1="22.744884" y1="8.300859" x2="17.927767" y2="6.289316" gradientUnits="userSpaceOnUse">
                <stop offset="1e-05" stop-color="#1bb0ef" stop-opacity="1"/>
                <stop offset="1" stop-color="#004b80" stop-opacity="1"/>
            </linearGradient>
            <path id="path5" fill="url(#linearGradient3)" fill-rule="evenodd" stroke="none" d="M 18.041174 4.872967 L 23.765293 7.342382 L 24.954594 10.572132 L 14.643456 6.352798 Z"/>
            <path id="path7" fill="#f6ab24" fill-rule="evenodd" stroke="none" d="M 4.593314 6.904332 L 6.67688 11.74556 L 3.122562 10.336088 Z"/>
            <path id="path8" fill="#0358b7" fill-rule="evenodd" stroke="none" d="M 21.62953 9.600712 L 25 11.071462 L 23.713097 14.503216 Z"/>
            <linearGradient id="linearGradient4" x1="21.686178" y1="15.235388" x2="19.72757" y2="10.259466" gradientUnits="userSpaceOnUse">
                <stop offset="1e-05" stop-color="#0358b7" stop-opacity="1"/>
                <stop offset="1" stop-color="#001d5f" stop-opacity="1"/>
            </linearGradient>
            <path id="path9" fill="url(#linearGradient4)" fill-rule="evenodd" stroke="none" d="M 17.707521 8.007398 L 21.200558 9.600712 L 23.46797 15.177315 L 22.058496 18.547789 Z"/>
            <linearGradient id="linearGradient5" x1="6.281992" y1="5.812898" x2="8.558211" y2="11.371109" gradientUnits="userSpaceOnUse">
                <stop offset="1e-05" stop-color="#f6a818" stop-opacity="1"/>
                <stop offset="1" stop-color="#d45500" stop-opacity="1"/>
            </linearGradient>
            <path id="path10" fill="url(#linearGradient5)" fill-rule="evenodd" stroke="none" d="M 6.186631 2.982325 C 6.186631 2.982325 9.229866 10.065897 10.598886 13.522717 L 7.350976 12.174527 L 4.838441 6.352798 Z"/>
            <linearGradient id="linearGradient6" x1="5.223285" y1="12.641557" x2="10.093337" y2="14.917778" gradientUnits="userSpaceOnUse">
                <stop offset="1e-05" stop-color="#00ab91" stop-opacity="1"/>
                <stop offset="1" stop-color="#165044" stop-opacity="1"/>
            </linearGradient>
            <path id="path11" fill="url(#linearGradient6)" fill-rule="evenodd" stroke="none" d="M 3 10.703774 L 13.662953 15.177315 L 10.108637 16.586784 L 4.409471 14.258091 Z"/>
            <linearGradient id="linearGradient7" x1="16.233837" y1="18.676186" x2="18.298314" y2="14.070811" gradientUnits="userSpaceOnUse">
                <stop offset="1e-05" stop-color="#9cd529" stop-opacity="1"/>
                <stop offset="1" stop-color="#338000" stop-opacity="1"/>
            </linearGradient>
            <path id="path12" fill="url(#linearGradient7)" fill-rule="evenodd" stroke="none" d="M 18.4429 11.316587 L 20.036213 14.748343 L 17.64624 20.386227 L 14.109009 21.892712 C 14.109009 21.892712 14.117912 21.961374 18.4429 11.316587 Z"/>
            <linearGradient id="linearGradient8" x1="9.246371" y1="18.464445" x2="15.281001" y2="15.976483" gradientUnits="userSpaceOnUse">
                <stop offset="1e-05" stop-color="#2eb248" stop-opacity="1"/>
                <stop offset="1" stop-color="#005522" stop-opacity="1"/>
            </linearGradient>
            <path id="path13" fill="url(#linearGradient8)" fill-rule="evenodd" stroke="none" d="M 16.917603 14.150892 C 16.917603 14.150892 15.623413 17.344021 15.501393 17.628571 L 9.802229 20.141102 L 6.309192 18.609066 Z"/>
            <path id="path14" fill="#00ab91" fill-rule="evenodd" stroke="none" d="M 4.715877 14.870907 L 9.618385 16.893188 L 6.186631 18.302664 Z"/>
            <path id="path15" fill="#9cd529" fill-rule="evenodd" stroke="none" d="M 20.158777 15.238592 L 21.568247 18.792912 L 18.259052 20.263662 Z"/>
            <path id="path16" fill="#2eb248" fill-rule="evenodd" stroke="none" d="M 15.375381 18.161448 L 13.662953 21.734415 L 10.353761 20.324945 Z"/>
            <path id="path6" fill="none" stroke="none" d="M 16.560625 10.868222 C 16.560625 12.174265 15.50187 13.233022 14.195827 13.233022 C 12.889783 13.233022 11.831028 12.174265 11.831028 10.868222 C 11.831028 9.56218 12.889783 8.503423 14.195827 8.503423 C 15.50187 8.503423 16.560625 9.56218 16.560625 10.868222 Z"/>
        </g>
    </g>
</svg>
