<?xml version="1.0" encoding="UTF-8" standalone="no"?>
<!-- Generated by Pixelmator Pro 3.5.7 -->

<svg
   width="179.5"
   height="180.86575"
   viewBox="0 0 179.5 180.86575"
   version="1.1"
   id="svg1"
   xmlns="http://www.w3.org/2000/svg"
   xmlns:svg="http://www.w3.org/2000/svg">
  <defs
     id="defs1" />
  <path
     id="Path"
     fill="#ed2328"
     fill-rule="evenodd"
     stroke="none"
     d="M 94.574101,0.57410116 122.5741,12.074101 l -39.999999,16 z" />
  <path
     id="path1"
     fill="#ec118e"
     fill-rule="evenodd"
     stroke="none"
     d="M 91,0 55,85 43,57.5 61.5,12 Z" />
  <path
     id="path2"
     fill="#ec1890"
     fill-rule="evenodd"
     stroke="none"
     d="m 57,12.574101 -15.5,40 -11.5,-27.5 z" />
  <path
     id="path3"
     fill="#ed2127"
     fill-rule="evenodd"
     stroke="none"
     d="M 126.8705,13.425899 154.5741,25 68.574101,60.5 l 12,-27.5 z" />
  <path
     id="path4"
     fill="#1bb0ef"
     fill-rule="evenodd"
     stroke="none"
     d="M 156.06904,27.699435 168,57.574101 l -40,-17 z" />
  <path
     id="path5"
     fill="#13aeee"
     fill-rule="evenodd"
     stroke="none"
     d="M 122.7223,42 169.4259,62.148202 179.12949,88.5 95,54.074101 Z" />
  <path
     id="path7"
     fill="#f6ab24"
     fill-rule="evenodd"
     stroke="none"
     d="m 13,58.574101 17,39.5 -29,-11.5 z" />
  <path
     id="path8"
     fill="#2566b7"
     fill-rule="evenodd"
     stroke="none"
     d="m 152,80.574101 27.5,12 L 169,120.5741 Z" />
  <path
     id="path9"
     fill="#2265b7"
     fill-rule="evenodd"
     stroke="none"
     d="m 120,67.574101 28.5,13 18.5,45.499999 -11.5,27.5 z" />
  <path
     id="path10"
     fill="#f6a818"
     fill-rule="evenodd"
     stroke="none"
     d="m 26,26.574101 c 0,0 24.830035,57.795493 36,85.999999 l -26.5,-11 L 15,54.074101 Z" />
  <path
     id="path11"
     fill="#0fabb0"
     fill-rule="evenodd"
     stroke="none"
     d="m 0,89.574101 87,36.499999 -29,11.5 -46.5,-19 z" />
  <path
     id="path12"
     fill="#9ad425"
     fill-rule="evenodd"
     stroke="none"
     d="m 126,94.574101 13,27.999999 -19.5,46 -28.860592,12.29156 c 0,0 0.07268,0.56021 35.360592,-86.291559 z" />
  <path
     id="path13"
     fill="#2bb247"
     fill-rule="evenodd"
     stroke="none"
     d="m 113.55496,117.69943 c 0,0 -10.55939,26.05303 -11.55496,28.37467 l -46.5,20.5 -28.5,-12.5 z" />
  <path
     id="path14"
     fill="#16adb1"
     fill-rule="evenodd"
     stroke="none"
     d="m 14,123.5741 40,16.5 -28,11.5 z" />
  <path
     id="path15"
     fill="#9cd529"
     fill-rule="evenodd"
     stroke="none"
     d="m 140,126.5741 11.5,29 -27,12 z" />
  <path
     id="path16"
     fill="#2eb248"
     fill-rule="evenodd"
     stroke="none"
     d="M 100.97185,150.42195 87,179.5741 l -27,-11.5 z" />
  <text
     xml:space="preserve"
     style="font-size:53.3333px;fill:#ed2127;fill-opacity:1"
     x="70.114449"
     y="109.87563"
     id="text1"><tspan
       id="tspan1"
       x="70.114449"
       y="109.87563"
       style="font-style:normal;font-variant:normal;font-weight:bold;font-stretch:normal;font-size:53.3333px;font-family:Helvetica;-inkscape-font-specification:'Helvetica Bold';fill:#ed2127;fill-opacity:1">C</tspan></text>
</svg>
